<svg width="276" height="326" viewBox="0 0 276 326" fill="none" xmlns="http://www.w3.org/2000/svg">
<g filter="url(#filter0_d_109_168)">
<rect width="238" height="288" transform="translate(19 6)" fill="white"/>
<path d="M59 77C59 57.1177 75.1177 41 95 41V41C114.882 41 131 57.1177 131 77V77C131 96.8823 114.882 113 95 113V113C75.1177 113 59 96.8823 59 77V77Z" fill="#EA4C89"/>
<g clip-path="url(#clip0_109_168)">
<g clip-path="url(#clip1_109_168)">
<path d="M94.4909 65.2182C87.5159 59.1176 78.6472 64.4778 78.5018 71.7444C78.4647 73.5964 78.9993 75.4003 80.0634 77.0633H86.9607L88.1874 75.0186C88.5437 74.425 89.4057 74.4059 89.7821 74.9977L92.3705 79.0651L96.1435 71.1C96.4726 70.405 97.4532 70.3829 97.8161 71.0569L101.05 77.0633H108.918C114.747 67.954 103.228 57.5766 94.4909 65.2182V65.2182Z" fill="white"/>
<path d="M99.6651 78.4451L97.0443 73.5779L93.3382 81.4017C93.0229 82.0673 92.0956 82.1251 91.7002 81.5037L89.0148 77.2838L88.2952 78.4829C88.1258 78.7653 87.8207 78.938 87.4914 78.938H81.5464C81.7327 79.1331 80.7395 78.1418 93.8297 91.1642C94.1953 91.528 94.7863 91.5281 95.152 91.1642C108.041 78.3422 107.249 79.1327 107.435 78.938H100.49C100.146 78.9381 99.8286 78.7487 99.6651 78.4451V78.4451Z" fill="white"/>
</g>
</g>
<path d="M65.272 151H60.376V139.816H64.728C65.4853 139.816 66.136 139.907 66.68 140.088C67.2347 140.269 67.6507 140.515 67.928 140.824C68.4293 141.4 68.68 142.051 68.68 142.776C68.68 143.651 68.3973 144.301 67.832 144.728C67.64 144.877 67.5067 144.973 67.432 145.016C67.3573 145.048 67.224 145.107 67.032 145.192C67.7253 145.341 68.2747 145.656 68.68 146.136C69.096 146.605 69.304 147.192 69.304 147.896C69.304 148.675 69.0373 149.363 68.504 149.96C67.8853 150.653 66.808 151 65.272 151ZM62.872 144.344H64.056C64.7493 144.344 65.2613 144.269 65.592 144.12C65.9333 143.971 66.104 143.651 66.104 143.16C66.104 142.659 65.9493 142.328 65.64 142.168C65.3307 142.008 64.808 141.928 64.072 141.928H62.872V144.344ZM62.872 148.888H64.584C65.2987 148.888 65.832 148.803 66.184 148.632C66.5467 148.451 66.728 148.104 66.728 147.592C66.728 147.069 66.536 146.728 66.152 146.568C65.7787 146.397 65.176 146.312 64.344 146.312H62.872V148.888ZM73.1091 146.696C73.1091 147.4 73.3065 147.976 73.7011 148.424C74.1065 148.861 74.6185 149.08 75.2371 149.08C75.8665 149.08 76.3785 148.861 76.7731 148.424C77.1785 147.976 77.3811 147.4 77.3811 146.696C77.3811 145.992 77.1785 145.416 76.7731 144.968C76.3785 144.52 75.8665 144.296 75.2371 144.296C74.6185 144.296 74.1065 144.52 73.7011 144.968C73.3065 145.416 73.1091 145.992 73.1091 146.696ZM79.7971 146.696C79.7971 147.944 79.3651 148.995 78.5011 149.848C77.6371 150.701 76.5491 151.128 75.2371 151.128C73.9358 151.128 72.8531 150.701 71.9891 149.848C71.1251 148.995 70.6931 147.944 70.6931 146.696C70.6931 145.448 71.1251 144.397 71.9891 143.544C72.8531 142.68 73.9358 142.248 75.2371 142.248C76.5491 142.248 77.6371 142.68 78.5011 143.544C79.3651 144.397 79.7971 145.448 79.7971 146.696ZM83.5998 146.696C83.5998 147.4 83.7971 147.976 84.1918 148.424C84.5971 148.861 85.1091 149.08 85.7278 149.08C86.3571 149.08 86.8691 148.861 87.2638 148.424C87.6691 147.976 87.8718 147.4 87.8718 146.696C87.8718 145.992 87.6691 145.416 87.2638 144.968C86.8691 144.52 86.3571 144.296 85.7278 144.296C85.1091 144.296 84.5971 144.52 84.1918 144.968C83.7971 145.416 83.5998 145.992 83.5998 146.696ZM90.2878 146.696C90.2878 147.944 89.8558 148.995 88.9918 149.848C88.1278 150.701 87.0398 151.128 85.7278 151.128C84.4264 151.128 83.3438 150.701 82.4798 149.848C81.6158 148.995 81.1838 147.944 81.1838 146.696C81.1838 145.448 81.6158 144.397 82.4798 143.544C83.3438 142.68 84.4264 142.248 85.7278 142.248C87.0398 142.248 88.1278 142.68 88.9918 143.544C89.8558 144.397 90.2878 145.448 90.2878 146.696ZM94.5704 151H92.1704V139.128H94.5704V145.224L97.2424 142.376H100.266L96.9864 145.864L100.394 151H97.5464L95.3544 147.704L94.5704 148.52V151ZM108.505 146.2V151H106.105V142.392H108.505V143.352C109.23 142.616 110.046 142.248 110.953 142.248C111.859 142.248 112.617 142.568 113.225 143.208C113.843 143.848 114.153 144.701 114.153 145.768V151H111.753V146.136C111.753 144.813 111.267 144.152 110.297 144.152C109.817 144.152 109.395 144.328 109.033 144.68C108.681 145.021 108.505 145.528 108.505 146.2ZM118.343 146.696C118.343 147.4 118.541 147.976 118.935 148.424C119.341 148.861 119.853 149.08 120.471 149.08C121.101 149.08 121.613 148.861 122.007 148.424C122.413 147.976 122.615 147.4 122.615 146.696C122.615 145.992 122.413 145.416 122.007 144.968C121.613 144.52 121.101 144.296 120.471 144.296C119.853 144.296 119.341 144.52 118.935 144.968C118.541 145.416 118.343 145.992 118.343 146.696ZM125.031 146.696C125.031 147.944 124.599 148.995 123.735 149.848C122.871 150.701 121.783 151.128 120.471 151.128C119.17 151.128 118.087 150.701 117.223 149.848C116.359 148.995 115.927 147.944 115.927 146.696C115.927 145.448 116.359 144.397 117.223 143.544C118.087 142.68 119.17 142.248 120.471 142.248C121.783 142.248 122.871 142.68 123.735 143.544C124.599 144.397 125.031 145.448 125.031 146.696ZM131.238 151H128.758L125.83 142.392H128.31L129.99 147.592L131.67 142.392H133.99L135.67 147.592L137.35 142.392H139.846L136.918 151H134.422L132.838 146.312L131.238 151Z" fill="#252B42"/>
<rect x="59" y="177" width="50" height="2" fill="#EA4C89"/>
<path d="M64.054 205.726V214H62.402V205.726H59.434V204.214H67.022V205.726H64.054ZM70.2829 209.968V214H68.7149V203.626H70.2829V207.91C70.5069 207.453 70.8429 207.093 71.2909 206.832C71.7482 206.571 72.2382 206.44 72.7609 206.44C73.6009 206.44 74.2775 206.697 74.7909 207.21C75.3135 207.723 75.5749 208.465 75.5749 209.436V214H74.0069V209.912C74.0069 208.54 73.4375 207.854 72.2989 207.854C71.7575 207.854 71.2862 208.036 70.8849 208.4C70.4835 208.755 70.2829 209.277 70.2829 209.968ZM84.8956 210.962H79.0576C79.095 211.503 79.3423 211.942 79.7996 212.278C80.257 212.605 80.7796 212.768 81.3676 212.768C82.301 212.768 83.0103 212.474 83.4956 211.886L84.3916 212.866C83.589 213.697 82.5436 214.112 81.2556 214.112C80.2103 214.112 79.319 213.767 78.5816 213.076C77.8536 212.376 77.4896 211.443 77.4896 210.276C77.4896 209.1 77.863 208.167 78.6096 207.476C79.3563 206.785 80.2336 206.44 81.2416 206.44C82.259 206.44 83.1223 206.748 83.8316 207.364C84.541 207.971 84.8956 208.811 84.8956 209.884V210.962ZM79.0576 209.73H83.3276C83.3276 209.105 83.1316 208.624 82.7396 208.288C82.3476 207.952 81.8623 207.784 81.2836 207.784C80.7143 207.784 80.201 207.961 79.7436 208.316C79.2863 208.661 79.0576 209.133 79.0576 209.73ZM97.7497 206.552V213.048C97.7497 214.364 97.3904 215.349 96.6717 216.002C95.9624 216.665 95.0477 216.996 93.9277 216.996C92.8077 216.996 91.7951 216.646 90.8897 215.946L91.6317 214.756C92.3597 215.307 93.0924 215.582 93.8297 215.582C94.5764 215.582 95.1644 215.391 95.5937 215.008C96.0324 214.625 96.2517 214.014 96.2517 213.174V212.222C96.0184 212.661 95.6824 213.011 95.2437 213.272C94.8144 213.533 94.3291 213.664 93.7877 213.664C92.7984 213.664 91.9864 213.319 91.3517 212.628C90.7171 211.937 90.3997 211.079 90.3997 210.052C90.3997 209.025 90.7171 208.167 91.3517 207.476C91.9864 206.785 92.7937 206.44 93.7737 206.44C94.7631 206.44 95.5657 206.846 96.1817 207.658V206.552H97.7497ZM91.9397 209.996C91.9397 210.603 92.1264 211.13 92.4997 211.578C92.8824 212.017 93.3911 212.236 94.0257 212.236C94.6697 212.236 95.1877 212.021 95.5797 211.592C95.9811 211.163 96.1817 210.631 96.1817 209.996C96.1817 209.352 95.9811 208.811 95.5797 208.372C95.1784 207.924 94.6604 207.7 94.0257 207.7C93.3911 207.7 92.8824 207.929 92.4997 208.386C92.1264 208.843 91.9397 209.38 91.9397 209.996ZM104.128 208.022C103.353 208.022 102.77 208.274 102.378 208.778C101.986 209.282 101.79 209.959 101.79 210.808V214H100.222V206.552H101.79V208.05C102.042 207.583 102.383 207.201 102.812 206.902C103.251 206.603 103.713 206.449 104.198 206.44L104.212 208.022C104.184 208.022 104.156 208.022 104.128 208.022ZM111.952 214H110.524V213.006C109.908 213.743 109.082 214.112 108.046 214.112C107.271 214.112 106.627 213.893 106.114 213.454C105.61 213.015 105.358 212.432 105.358 211.704C105.358 210.967 105.629 210.416 106.17 210.052C106.711 209.688 107.444 209.506 108.368 209.506H110.398V209.226C110.398 208.237 109.847 207.742 108.746 207.742C108.055 207.742 107.337 207.994 106.59 208.498L105.89 207.518C106.795 206.799 107.822 206.44 108.97 206.44C109.847 206.44 110.561 206.664 111.112 207.112C111.672 207.551 111.952 208.246 111.952 209.198V214ZM110.384 211.228V210.598H108.62C107.491 210.598 106.926 210.953 106.926 211.662C106.926 212.026 107.066 212.306 107.346 212.502C107.626 212.689 108.013 212.782 108.508 212.782C109.012 212.782 109.451 212.642 109.824 212.362C110.197 212.082 110.384 211.704 110.384 211.228ZM117.373 214.112C116.43 214.112 115.609 213.757 114.909 213.048C114.209 212.339 113.859 211.405 113.859 210.248C113.859 209.091 114.218 208.167 114.937 207.476C115.655 206.785 116.509 206.44 117.499 206.44C118.497 206.44 119.3 206.86 119.907 207.7V203.612H121.475V214H119.907V212.88C119.328 213.701 118.483 214.112 117.373 214.112ZM115.427 210.318C115.427 211.027 115.655 211.606 116.113 212.054C116.57 212.502 117.107 212.726 117.723 212.726C118.339 212.726 118.861 212.502 119.291 212.054C119.72 211.597 119.935 211.013 119.935 210.304C119.935 209.595 119.72 209.002 119.291 208.526C118.861 208.05 118.334 207.812 117.709 207.812C117.083 207.812 116.547 208.05 116.099 208.526C115.651 209.002 115.427 209.599 115.427 210.318ZM129.149 210.584V206.552H130.717V214H129.149V212.642C128.897 213.099 128.547 213.459 128.099 213.72C127.66 213.981 127.184 214.112 126.671 214.112C125.831 214.112 125.15 213.855 124.627 213.342C124.114 212.829 123.857 212.087 123.857 211.116V206.552H125.425V210.64C125.425 212.012 125.994 212.698 127.133 212.698C127.674 212.698 128.146 212.521 128.547 212.166C128.948 211.802 129.149 211.275 129.149 210.584ZM139.226 214H137.798V213.006C137.182 213.743 136.356 214.112 135.32 214.112C134.545 214.112 133.901 213.893 133.388 213.454C132.884 213.015 132.632 212.432 132.632 211.704C132.632 210.967 132.902 210.416 133.444 210.052C133.985 209.688 134.718 209.506 135.642 209.506H137.672V209.226C137.672 208.237 137.121 207.742 136.02 207.742C135.329 207.742 134.61 207.994 133.864 208.498L133.164 207.518C134.069 206.799 135.096 206.44 136.244 206.44C137.121 206.44 137.835 206.664 138.386 207.112C138.946 207.551 139.226 208.246 139.226 209.198V214ZM137.658 211.228V210.598H135.894C134.764 210.598 134.2 210.953 134.2 211.662C134.2 212.026 134.34 212.306 134.62 212.502C134.9 212.689 135.287 212.782 135.782 212.782C136.286 212.782 136.724 212.642 137.098 212.362C137.471 212.082 137.658 211.704 137.658 211.228ZM143.177 214H141.609V203.612H143.177V214ZM66.168 234H64.74V233.006C64.124 233.743 63.298 234.112 62.262 234.112C61.4873 234.112 60.8433 233.893 60.33 233.454C59.826 233.015 59.574 232.432 59.574 231.704C59.574 230.967 59.8447 230.416 60.386 230.052C60.9273 229.688 61.66 229.506 62.584 229.506H64.614V229.226C64.614 228.237 64.0633 227.742 62.962 227.742C62.2713 227.742 61.5527 227.994 60.806 228.498L60.106 227.518C61.0113 226.799 62.038 226.44 63.186 226.44C64.0633 226.44 64.7773 226.664 65.328 227.112C65.888 227.551 66.168 228.246 66.168 229.198V234ZM64.6 231.228V230.598H62.836C61.7067 230.598 61.142 230.953 61.142 231.662C61.142 232.026 61.282 232.306 61.562 232.502C61.842 232.689 62.2293 232.782 62.724 232.782C63.228 232.782 63.6667 232.642 64.04 232.362C64.4133 232.082 64.6 231.704 64.6 231.228ZM71.8548 234.112C70.8188 234.112 69.9275 233.762 69.1808 233.062C68.4341 232.353 68.0608 231.429 68.0608 230.29C68.0608 229.151 68.4481 228.227 69.2228 227.518C70.0068 226.799 70.9588 226.44 72.0788 226.44C73.1988 226.44 74.1461 226.827 74.9208 227.602L73.9968 228.736C73.3528 228.176 72.7041 227.896 72.0508 227.896C71.3975 227.896 70.8281 228.115 70.3428 228.554C69.8668 228.983 69.6288 229.543 69.6288 230.234C69.6288 230.915 69.8668 231.494 70.3428 231.97C70.8188 232.446 71.4021 232.684 72.0928 232.684C72.7928 232.684 73.4508 232.367 74.0668 231.732L74.9908 232.74C74.0855 233.655 73.0401 234.112 71.8548 234.112ZM80.1212 234.112C79.0852 234.112 78.1939 233.762 77.4472 233.062C76.7005 232.353 76.3272 231.429 76.3272 230.29C76.3272 229.151 76.7145 228.227 77.4892 227.518C78.2732 226.799 79.2252 226.44 80.3452 226.44C81.4652 226.44 82.4125 226.827 83.1872 227.602L82.2632 228.736C81.6192 228.176 80.9705 227.896 80.3172 227.896C79.6639 227.896 79.0945 228.115 78.6092 228.554C78.1332 228.983 77.8952 229.543 77.8952 230.234C77.8952 230.915 78.1332 231.494 78.6092 231.97C79.0852 232.446 79.6685 232.684 80.3592 232.684C81.0592 232.684 81.7172 232.367 82.3332 231.732L83.2572 232.74C82.3519 233.655 81.3065 234.112 80.1212 234.112ZM90.2916 230.584V226.552H91.8596V234H90.2916V232.642C90.0396 233.099 89.6896 233.459 89.2416 233.72C88.8029 233.981 88.3269 234.112 87.8136 234.112C86.9736 234.112 86.2923 233.855 85.7696 233.342C85.2563 232.829 84.9996 232.087 84.9996 231.116V226.552H86.5676V230.64C86.5676 232.012 87.1369 232.698 88.2756 232.698C88.8169 232.698 89.2883 232.521 89.6896 232.166C90.0909 231.802 90.2916 231.275 90.2916 230.584ZM95.9024 229.968V234H94.3344V226.552H95.9024V227.91C96.1264 227.453 96.4624 227.093 96.9104 226.832C97.3677 226.571 97.8577 226.44 98.3804 226.44C99.5564 226.44 100.354 226.925 100.774 227.896C101.512 226.925 102.431 226.44 103.532 226.44C104.372 226.44 105.049 226.697 105.562 227.21C106.085 227.723 106.346 228.465 106.346 229.436V234H104.778V229.912C104.778 228.54 104.209 227.854 103.07 227.854C102.538 227.854 102.072 228.027 101.67 228.372C101.278 228.708 101.073 229.203 101.054 229.856V234H99.4864V229.912C99.4864 229.203 99.3604 228.685 99.1084 228.358C98.8564 228.022 98.4597 227.854 97.9184 227.854C97.3771 227.854 96.9057 228.036 96.5044 228.4C96.1031 228.755 95.9024 229.277 95.9024 229.968ZM113.934 230.584V226.552H115.502V234H113.934V232.642C113.682 233.099 113.332 233.459 112.884 233.72C112.445 233.981 111.969 234.112 111.456 234.112C110.616 234.112 109.934 233.855 109.412 233.342C108.898 232.829 108.642 232.087 108.642 231.116V226.552H110.21V230.64C110.21 232.012 110.779 232.698 111.918 232.698C112.459 232.698 112.93 232.521 113.332 232.166C113.733 231.802 113.934 231.275 113.934 230.584ZM119.545 234H117.977V223.612H119.545V234ZM128.052 234H126.624V233.006C126.008 233.743 125.182 234.112 124.146 234.112C123.372 234.112 122.728 233.893 122.214 233.454C121.71 233.015 121.458 232.432 121.458 231.704C121.458 230.967 121.729 230.416 122.27 230.052C122.812 229.688 123.544 229.506 124.468 229.506H126.498V229.226C126.498 228.237 125.948 227.742 124.846 227.742C124.156 227.742 123.437 227.994 122.69 228.498L121.99 227.518C122.896 226.799 123.922 226.44 125.07 226.44C125.948 226.44 126.662 226.664 127.212 227.112C127.772 227.551 128.052 228.246 128.052 229.198V234ZM126.484 231.228V230.598H124.72C123.591 230.598 123.026 230.953 123.026 231.662C123.026 232.026 123.166 232.306 123.446 232.502C123.726 232.689 124.114 232.782 124.608 232.782C125.112 232.782 125.551 232.642 125.924 232.362C126.298 232.082 126.484 231.704 126.484 231.228ZM132.285 227.812V231.592C132.285 231.947 132.378 232.231 132.565 232.446C132.752 232.651 133.013 232.754 133.349 232.754C133.685 232.754 134.007 232.591 134.315 232.264L134.959 233.37C134.408 233.865 133.797 234.112 133.125 234.112C132.462 234.112 131.893 233.883 131.417 233.426C130.95 232.959 130.717 232.334 130.717 231.55V227.812H129.779V226.552H130.717V224.214H132.285V226.552H134.245V227.812H132.285ZM137.973 234H136.405V226.552H137.973V234ZM136.503 225.068C136.307 224.872 136.209 224.639 136.209 224.368C136.209 224.097 136.307 223.864 136.503 223.668C136.699 223.472 136.932 223.374 137.203 223.374C137.473 223.374 137.707 223.472 137.903 223.668C138.099 223.864 138.197 224.097 138.197 224.368C138.197 224.639 138.099 224.872 137.903 225.068C137.707 225.264 137.473 225.362 137.203 225.362C136.932 225.362 136.699 225.264 136.503 225.068ZM142.183 232.04C142.631 232.488 143.195 232.712 143.877 232.712C144.558 232.712 145.118 232.488 145.557 232.04C146.005 231.583 146.229 230.995 146.229 230.276C146.229 229.557 146.005 228.974 145.557 228.526C145.118 228.069 144.558 227.84 143.877 227.84C143.195 227.84 142.631 228.069 142.183 228.526C141.744 228.974 141.525 229.557 141.525 230.276C141.525 230.995 141.744 231.583 142.183 232.04ZM146.677 233.006C145.93 233.743 144.997 234.112 143.877 234.112C142.757 234.112 141.823 233.743 141.077 233.006C140.33 232.259 139.957 231.349 139.957 230.276C139.957 229.203 140.33 228.297 141.077 227.56C141.823 226.813 142.757 226.44 143.877 226.44C144.997 226.44 145.93 226.813 146.677 227.56C147.423 228.297 147.797 229.203 147.797 230.276C147.797 231.349 147.423 232.259 146.677 233.006ZM151.347 229.968V234H149.779V226.552H151.347V227.91C151.599 227.453 151.945 227.093 152.383 226.832C152.831 226.571 153.312 226.44 153.825 226.44C154.665 226.44 155.342 226.697 155.855 227.21C156.378 227.723 156.639 228.465 156.639 229.436V234H155.071V229.912C155.071 228.54 154.502 227.854 153.363 227.854C152.822 227.854 152.351 228.036 151.949 228.4C151.548 228.755 151.347 229.277 151.347 229.968ZM164.808 232.04C165.256 232.488 165.821 232.712 166.502 232.712C167.183 232.712 167.743 232.488 168.182 232.04C168.63 231.583 168.854 230.995 168.854 230.276C168.854 229.557 168.63 228.974 168.182 228.526C167.743 228.069 167.183 227.84 166.502 227.84C165.821 227.84 165.256 228.069 164.808 228.526C164.369 228.974 164.15 229.557 164.15 230.276C164.15 230.995 164.369 231.583 164.808 232.04ZM169.302 233.006C168.555 233.743 167.622 234.112 166.502 234.112C165.382 234.112 164.449 233.743 163.702 233.006C162.955 232.259 162.582 231.349 162.582 230.276C162.582 229.203 162.955 228.297 163.702 227.56C164.449 226.813 165.382 226.44 166.502 226.44C167.622 226.44 168.555 226.813 169.302 227.56C170.049 228.297 170.422 229.203 170.422 230.276C170.422 231.349 170.049 232.259 169.302 233.006ZM174.227 225.936V226.552H176.187V227.812H174.227V234H172.659V227.812H171.721V226.552H172.659V225.978C172.659 225.194 172.893 224.573 173.359 224.116C173.835 223.649 174.405 223.416 175.067 223.416C175.739 223.416 176.351 223.663 176.901 224.158L176.257 225.264C175.949 224.937 175.627 224.774 175.291 224.774C174.955 224.774 174.694 224.881 174.507 225.096C174.321 225.301 174.227 225.581 174.227 225.936ZM61.702 254H60.134V246.552H61.702V254ZM60.232 245.068C60.036 244.872 59.938 244.639 59.938 244.368C59.938 244.097 60.036 243.864 60.232 243.668C60.428 243.472 60.6613 243.374 60.932 243.374C61.2027 243.374 61.436 243.472 61.632 243.668C61.828 243.864 61.926 244.097 61.926 244.368C61.926 244.639 61.828 244.872 61.632 245.068C61.436 245.264 61.2027 245.362 60.932 245.362C60.6613 245.362 60.428 245.264 60.232 245.068ZM65.7438 249.968V254H64.1758V246.552H65.7438V247.91C65.9958 247.453 66.3411 247.093 66.7798 246.832C67.2278 246.571 67.7085 246.44 68.2218 246.44C69.0618 246.44 69.7385 246.697 70.2518 247.21C70.7745 247.723 71.0358 248.465 71.0358 249.436V254H69.4678V249.912C69.4678 248.54 68.8985 247.854 67.7598 247.854C67.2185 247.854 66.7471 248.036 66.3458 248.4C65.9445 248.755 65.7438 249.277 65.7438 249.968ZM75.2902 245.936V246.552H77.2502V247.812H75.2902V254H73.7222V247.812H72.7842V246.552H73.7222V245.978C73.7222 245.194 73.9556 244.573 74.4222 244.116C74.8982 243.649 75.4676 243.416 76.1302 243.416C76.8022 243.416 77.4136 243.663 77.9642 244.158L77.3202 245.264C77.0122 244.937 76.6902 244.774 76.3542 244.774C76.0182 244.774 75.7569 244.881 75.5702 245.096C75.3836 245.301 75.2902 245.581 75.2902 245.936ZM80.5169 252.04C80.9649 252.488 81.5295 252.712 82.2109 252.712C82.8922 252.712 83.4522 252.488 83.8909 252.04C84.3389 251.583 84.5629 250.995 84.5629 250.276C84.5629 249.557 84.3389 248.974 83.8909 248.526C83.4522 248.069 82.8922 247.84 82.2109 247.84C81.5295 247.84 80.9649 248.069 80.5169 248.526C80.0782 248.974 79.8589 249.557 79.8589 250.276C79.8589 250.995 80.0782 251.583 80.5169 252.04ZM85.0109 253.006C84.2642 253.743 83.3309 254.112 82.2109 254.112C81.0909 254.112 80.1575 253.743 79.4109 253.006C78.6642 252.259 78.2909 251.349 78.2909 250.276C78.2909 249.203 78.6642 248.297 79.4109 247.56C80.1575 246.813 81.0909 246.44 82.2109 246.44C83.3309 246.44 84.2642 246.813 85.0109 247.56C85.7575 248.297 86.1309 249.203 86.1309 250.276C86.1309 251.349 85.7575 252.259 85.0109 253.006ZM92.0197 248.022C91.245 248.022 90.6617 248.274 90.2697 248.778C89.8777 249.282 89.6817 249.959 89.6817 250.808V254H88.1137V246.552H89.6817V248.05C89.9337 247.583 90.2744 247.201 90.7037 246.902C91.1424 246.603 91.6044 246.449 92.0897 246.44L92.1037 248.022C92.0757 248.022 92.0477 248.022 92.0197 248.022ZM95.4461 249.968V254H93.8781V246.552H95.4461V247.91C95.6701 247.453 96.0061 247.093 96.4541 246.832C96.9115 246.571 97.4015 246.44 97.9241 246.44C99.1001 246.44 99.8981 246.925 100.318 247.896C101.055 246.925 101.975 246.44 103.076 246.44C103.916 246.44 104.593 246.697 105.106 247.21C105.629 247.723 105.89 248.465 105.89 249.436V254H104.322V249.912C104.322 248.54 103.753 247.854 102.614 247.854C102.082 247.854 101.615 248.027 101.214 248.372C100.822 248.708 100.617 249.203 100.598 249.856V254H99.0301V249.912C99.0301 249.203 98.9041 248.685 98.6521 248.358C98.4001 248.022 98.0035 247.854 97.4621 247.854C96.9208 247.854 96.4495 248.036 96.0481 248.4C95.6468 248.755 95.4461 249.277 95.4461 249.968ZM114.304 254H112.876V253.006C112.26 253.743 111.434 254.112 110.398 254.112C109.623 254.112 108.979 253.893 108.466 253.454C107.962 253.015 107.71 252.432 107.71 251.704C107.71 250.967 107.98 250.416 108.522 250.052C109.063 249.688 109.796 249.506 110.72 249.506H112.75V249.226C112.75 248.237 112.199 247.742 111.098 247.742C110.407 247.742 109.688 247.994 108.942 248.498L108.242 247.518C109.147 246.799 110.174 246.44 111.322 246.44C112.199 246.44 112.913 246.664 113.464 247.112C114.024 247.551 114.304 248.246 114.304 249.198V254ZM112.736 251.228V250.598H110.972C109.842 250.598 109.278 250.953 109.278 251.662C109.278 252.026 109.418 252.306 109.698 252.502C109.978 252.689 110.365 252.782 110.86 252.782C111.364 252.782 111.802 252.642 112.176 252.362C112.549 252.082 112.736 251.704 112.736 251.228ZM118.536 247.812V251.592C118.536 251.947 118.63 252.231 118.816 252.446C119.003 252.651 119.264 252.754 119.6 252.754C119.936 252.754 120.258 252.591 120.566 252.264L121.21 253.37C120.66 253.865 120.048 254.112 119.376 254.112C118.714 254.112 118.144 253.883 117.668 253.426C117.202 252.959 116.968 252.334 116.968 251.55V247.812H116.03V246.552H116.968V244.214H118.536V246.552H120.496V247.812H118.536ZM124.224 254H122.656V246.552H124.224V254ZM122.754 245.068C122.558 244.872 122.46 244.639 122.46 244.368C122.46 244.097 122.558 243.864 122.754 243.668C122.95 243.472 123.183 243.374 123.454 243.374C123.725 243.374 123.958 243.472 124.154 243.668C124.35 243.864 124.448 244.097 124.448 244.368C124.448 244.639 124.35 244.872 124.154 245.068C123.958 245.264 123.725 245.362 123.454 245.362C123.183 245.362 122.95 245.264 122.754 245.068ZM128.434 252.04C128.882 252.488 129.446 252.712 130.128 252.712C130.809 252.712 131.369 252.488 131.808 252.04C132.256 251.583 132.48 250.995 132.48 250.276C132.48 249.557 132.256 248.974 131.808 248.526C131.369 248.069 130.809 247.84 130.128 247.84C129.446 247.84 128.882 248.069 128.434 248.526C127.995 248.974 127.776 249.557 127.776 250.276C127.776 250.995 127.995 251.583 128.434 252.04ZM132.928 253.006C132.181 253.743 131.248 254.112 130.128 254.112C129.008 254.112 128.074 253.743 127.328 253.006C126.581 252.259 126.208 251.349 126.208 250.276C126.208 249.203 126.581 248.297 127.328 247.56C128.074 246.813 129.008 246.44 130.128 246.44C131.248 246.44 132.181 246.813 132.928 247.56C133.674 248.297 134.048 249.203 134.048 250.276C134.048 251.349 133.674 252.259 132.928 253.006ZM137.598 249.968V254H136.03V246.552H137.598V247.91C137.85 247.453 138.196 247.093 138.634 246.832C139.082 246.571 139.563 246.44 140.076 246.44C140.916 246.44 141.593 246.697 142.106 247.21C142.629 247.723 142.89 248.465 142.89 249.436V254H141.322V249.912C141.322 248.54 140.753 247.854 139.614 247.854C139.073 247.854 138.602 248.036 138.2 248.4C137.799 248.755 137.598 249.277 137.598 249.968ZM155.357 254H153.929V253.006C153.313 253.743 152.487 254.112 151.451 254.112C150.676 254.112 150.032 253.893 149.519 253.454C149.015 253.015 148.763 252.432 148.763 251.704C148.763 250.967 149.034 250.416 149.575 250.052C150.116 249.688 150.849 249.506 151.773 249.506H153.803V249.226C153.803 248.237 153.252 247.742 152.151 247.742C151.46 247.742 150.742 247.994 149.995 248.498L149.295 247.518C150.2 246.799 151.227 246.44 152.375 246.44C153.252 246.44 153.966 246.664 154.517 247.112C155.077 247.551 155.357 248.246 155.357 249.198V254ZM153.789 251.228V250.598H152.025C150.896 250.598 150.331 250.953 150.331 251.662C150.331 252.026 150.471 252.306 150.751 252.502C151.031 252.689 151.418 252.782 151.913 252.782C152.417 252.782 152.856 252.642 153.229 252.362C153.602 252.082 153.789 251.704 153.789 251.228ZM161.73 246.44C162.729 246.44 163.583 246.785 164.292 247.476C165.001 248.167 165.356 249.086 165.356 250.234C165.356 251.382 165.001 252.315 164.292 253.034C163.592 253.753 162.771 254.112 161.828 254.112C160.895 254.112 160.055 253.701 159.308 252.88V254H157.74V243.612H159.308V247.854C159.924 246.911 160.731 246.44 161.73 246.44ZM159.28 250.29C159.28 250.999 159.495 251.583 159.924 252.04C160.353 252.488 160.876 252.712 161.492 252.712C162.108 252.712 162.645 252.488 163.102 252.04C163.559 251.592 163.788 251.013 163.788 250.304C163.788 249.585 163.564 248.993 163.116 248.526C162.668 248.05 162.131 247.812 161.506 247.812C160.881 247.812 160.353 248.05 159.924 248.526C159.495 248.993 159.28 249.581 159.28 250.29ZM169.082 252.04C169.53 252.488 170.095 252.712 170.776 252.712C171.457 252.712 172.017 252.488 172.456 252.04C172.904 251.583 173.128 250.995 173.128 250.276C173.128 249.557 172.904 248.974 172.456 248.526C172.017 248.069 171.457 247.84 170.776 247.84C170.095 247.84 169.53 248.069 169.082 248.526C168.643 248.974 168.424 249.557 168.424 250.276C168.424 250.995 168.643 251.583 169.082 252.04ZM173.576 253.006C172.829 253.743 171.896 254.112 170.776 254.112C169.656 254.112 168.723 253.743 167.976 253.006C167.229 252.259 166.856 251.349 166.856 250.276C166.856 249.203 167.229 248.297 167.976 247.56C168.723 246.813 169.656 246.44 170.776 246.44C171.896 246.44 172.829 246.813 173.576 247.56C174.323 248.297 174.696 249.203 174.696 250.276C174.696 251.349 174.323 252.259 173.576 253.006ZM181.887 250.584V246.552H183.455V254H181.887V252.642C181.635 253.099 181.285 253.459 180.837 253.72C180.398 253.981 179.922 254.112 179.409 254.112C178.569 254.112 177.888 253.855 177.365 253.342C176.852 252.829 176.595 252.087 176.595 251.116V246.552H178.163V250.64C178.163 252.012 178.732 252.698 179.871 252.698C180.412 252.698 180.884 252.521 181.285 252.166C181.686 251.802 181.887 251.275 181.887 250.584ZM187.862 247.812V251.592C187.862 251.947 187.955 252.231 188.142 252.446C188.328 252.651 188.59 252.754 188.926 252.754C189.262 252.754 189.584 252.591 189.892 252.264L190.536 253.37C189.985 253.865 189.374 254.112 188.702 254.112C188.039 254.112 187.47 253.883 186.994 253.426C186.527 252.959 186.294 252.334 186.294 251.55V247.812H185.356V246.552H186.294V244.214H187.862V246.552H189.822V247.812H187.862Z" fill="#737373"/>
</g>
<defs>
<filter id="filter0_d_109_168" x="0" y="0" width="276" height="326" filterUnits="userSpaceOnUse" color-interpolation-filters="sRGB">
<feFlood flood-opacity="0" result="BackgroundImageFix"/>
<feColorMatrix in="SourceAlpha" type="matrix" values="0 0 0 0 0 0 0 0 0 0 0 0 0 0 0 0 0 0 127 0" result="hardAlpha"/>
<feOffset dy="13"/>
<feGaussianBlur stdDeviation="9.5"/>
<feColorMatrix type="matrix" values="0 0 0 0 0 0 0 0 0 0 0 0 0 0 0 0 0 0 0.07 0"/>
<feBlend mode="normal" in2="BackgroundImageFix" result="effect1_dropShadow_109_168"/>
<feBlend mode="normal" in="SourceGraphic" in2="effect1_dropShadow_109_168" result="shape"/>
</filter>
<clipPath id="clip0_109_168">
<rect width="32" height="32" fill="white" transform="translate(78.5 61)"/>
</clipPath>
<clipPath id="clip1_109_168">
<rect width="32" height="32" fill="white" transform="translate(78.5 61)"/>
</clipPath>
</defs>
</svg>
