<svg width="19" height="125" viewBox="0 0 19 125" fill="none" xmlns="http://www.w3.org/2000/svg">
<path d="M17.222 10.8285V11.7664C17.221 13.9648 16.6547 16.1039 15.6074 17.8646C14.5601 19.6254 13.0881 20.9135 11.4108 21.5368C9.73347 22.1601 7.9408 22.0853 6.30011 21.3234C4.65943 20.5616 3.25864 19.1535 2.30665 17.3093C1.35467 15.465 0.902499 13.2834 1.01758 11.0898C1.13267 8.89615 1.80884 6.80805 2.94525 5.13689C4.08166 3.46573 5.61742 2.30106 7.3235 1.81657C9.02957 1.33209 10.8145 1.55375 12.4122 2.44849" stroke="url(#paint0_linear_104_107)" stroke-width="2" stroke-miterlimit="10" stroke-linecap="round" stroke-linejoin="round"/>
<path d="M17.2222 3.61133L9.11116 13.8162L6.67786 10.7578" stroke="url(#paint1_linear_104_107)" stroke-width="2" stroke-miterlimit="10" stroke-linecap="round" stroke-linejoin="round"/>
<path d="M17.2221 61.8018V62.7397C17.2211 64.9381 16.6548 67.0772 15.6075 68.838C14.5602 70.5987 13.0882 71.8868 11.4109 72.5101C9.73359 73.1335 7.94092 73.0586 6.30024 72.2967C4.65955 71.5349 3.25876 70.1268 2.30677 68.2826C1.35479 66.4384 0.902621 64.2567 1.0177 62.0631C1.13279 59.8695 1.80896 57.7814 2.94537 56.1102C4.08178 54.4391 5.61755 53.2744 7.32362 52.7899C9.02969 52.3054 10.8147 52.5271 12.4123 53.4218" stroke="url(#paint2_linear_104_107)" stroke-width="2" stroke-miterlimit="10" stroke-linecap="round" stroke-linejoin="round"/>
<path d="M17.2223 54.5847L9.11128 64.7895L6.67798 61.7311" stroke="url(#paint3_linear_104_107)" stroke-width="2" stroke-miterlimit="10" stroke-linecap="round" stroke-linejoin="round"/>
<path d="M17.2221 112.775V113.713C17.2211 115.911 16.6548 118.05 15.6075 119.811C14.5602 121.572 13.0882 122.86 11.4109 123.483C9.73359 124.107 7.94092 124.032 6.30024 123.27C4.65955 122.508 3.25876 121.1 2.30677 119.256C1.35479 117.411 0.902621 115.23 1.0177 113.036C1.13279 110.843 1.80896 108.755 2.94537 107.083C4.08178 105.412 5.61755 104.248 7.32362 103.763C9.02969 103.279 10.8147 103.5 12.4123 104.395" stroke="url(#paint4_linear_104_107)" stroke-width="2" stroke-miterlimit="10" stroke-linecap="round" stroke-linejoin="round"/>
<path d="M17.2223 105.558L9.11128 115.763L6.67798 112.704" stroke="url(#paint5_linear_104_107)" stroke-width="2" stroke-miterlimit="10" stroke-linecap="round" stroke-linejoin="round"/>
<defs>
<linearGradient id="paint0_linear_104_107" x1="9.11101" y1="1.56592" x2="9.11101" y2="21.9552" gradientUnits="userSpaceOnUse">
<stop stop-color="#B92FCF"/>
<stop offset="0.546875" stop-color="#E7CF8E"/>
<stop offset="1" stop-color="#B4A374"/>
</linearGradient>
<linearGradient id="paint1_linear_104_107" x1="11.95" y1="3.61133" x2="11.95" y2="13.8161" gradientUnits="userSpaceOnUse">
<stop stop-color="#B92FCF"/>
<stop offset="0.546875" stop-color="#E7CF8E"/>
<stop offset="1" stop-color="#B4A374"/>
</linearGradient>
<linearGradient id="paint2_linear_104_107" x1="9.11113" y1="52.5392" x2="9.11113" y2="72.9285" gradientUnits="userSpaceOnUse">
<stop stop-color="#B92FCF"/>
<stop offset="0.546875" stop-color="#E7CF8E"/>
<stop offset="1" stop-color="#B4A374"/>
</linearGradient>
<linearGradient id="paint3_linear_104_107" x1="11.9501" y1="54.5847" x2="11.9501" y2="64.7895" gradientUnits="userSpaceOnUse">
<stop stop-color="#B92FCF"/>
<stop offset="0.546875" stop-color="#E7CF8E"/>
<stop offset="1" stop-color="#B4A374"/>
</linearGradient>
<linearGradient id="paint4_linear_104_107" x1="9.11113" y1="103.512" x2="9.11113" y2="123.902" gradientUnits="userSpaceOnUse">
<stop stop-color="#B92FCF"/>
<stop offset="0.546875" stop-color="#E7CF8E"/>
<stop offset="1" stop-color="#B4A374"/>
</linearGradient>
<linearGradient id="paint5_linear_104_107" x1="11.9501" y1="105.558" x2="11.9501" y2="115.763" gradientUnits="userSpaceOnUse">
<stop stop-color="#B92FCF"/>
<stop offset="0.546875" stop-color="#E7CF8E"/>
<stop offset="1" stop-color="#B4A374"/>
</linearGradient>
</defs>
</svg>
