<svg width="32" height="33" viewBox="0 0 32 33" fill="none" xmlns="http://www.w3.org/2000/svg">
<path d="M29.7709 1.03284H20.5015C19.865 1.03284 18.9736 1.50014 18.524 2.06912L7.03147 16.6143C6.81477 16.8898 6.69312 17.2628 6.69312 17.6516C6.69312 18.0403 6.81477 18.4133 7.03147 18.6888L16.9791 31.2787C17.1968 31.553 17.4915 31.707 17.7987 31.707C18.1059 31.707 18.4006 31.553 18.6183 31.2787L30.1108 16.7336C30.5619 16.1626 30.9296 15.0364 30.9296 14.2308V2.49928C30.9288 2.11067 30.8065 1.73828 30.5894 1.46349C30.3722 1.1887 30.078 1.03387 29.7709 1.03284V1.03284ZM23.9775 12.7644C23.6731 12.7643 23.3717 12.6882 23.0905 12.5407C22.8093 12.3931 22.5538 12.1769 22.3386 11.9044C22.1234 11.6319 21.9528 11.3084 21.8364 10.9524C21.7199 10.5964 21.6601 10.2148 21.6602 9.82954C21.6603 9.44426 21.7204 9.06278 21.8369 8.70688C21.9535 8.35097 22.1244 8.02762 22.3397 7.75527C22.555 7.48293 22.8106 7.26693 23.0919 7.11961C23.3732 6.97229 23.6747 6.89653 23.9791 6.89666C24.5939 6.89692 25.1834 7.20627 25.618 7.75666C26.0526 8.30705 26.2967 9.05339 26.2965 9.8315C26.2962 10.6096 26.0518 11.3557 25.6169 11.9058C25.1821 12.4558 24.5924 12.7646 23.9775 12.7644V12.7644Z" stroke="url(#paint0_linear_104_101)" stroke-width="2" stroke-miterlimit="10" stroke-linecap="round" stroke-linejoin="round"/>
<path d="M3.12125 17.6525L16.253 1.03284H14.3218C13.6853 1.03284 12.7939 1.50014 12.3443 2.06912L0.851784 16.6143C0.635084 16.8898 0.513428 17.2628 0.513428 17.6516C0.513428 18.0403 0.635084 18.4133 0.851784 18.6888L10.7994 31.2787C11.0172 31.553 11.3118 31.707 11.619 31.707C11.9262 31.707 12.2209 31.553 12.4386 31.2787L13.1647 30.3598L3.1228 17.6506L3.12125 17.6525Z" fill="url(#paint1_linear_104_101)"/>
<defs>
<linearGradient id="paint0_linear_104_101" x1="18.8114" y1="1.03284" x2="18.8114" y2="31.707" gradientUnits="userSpaceOnUse">
<stop stop-color="#AE9D6F"/>
<stop offset="0.546875" stop-color="#E7CF8E"/>
<stop offset="1" stop-color="#B4A374"/>
</linearGradient>
<linearGradient id="paint1_linear_104_101" x1="8.38319" y1="1.03284" x2="8.38319" y2="31.707" gradientUnits="userSpaceOnUse">
<stop stop-color="#AE9D6F"/>
<stop offset="0.546875" stop-color="#E7CF8E"/>
<stop offset="1" stop-color="#B4A374"/>
</linearGradient>
</defs>
</svg>
